<?xml version="1.0" encoding="UTF-8"?><svg id="Layer_2" xmlns="http://www.w3.org/2000/svg" viewBox="0 0 662.97 152.86"><defs><style>.cls-1{fill:#fff;}.cls-2,.cls-3{fill:#221f1f;}.cls-3{font-size:59.87px;}.cls-4{font-family:RobotoFlexNormalNormalNormalNormalNormalNormalNormalNormalNormalDefault-Bold, 'Roboto Flex';font-variation-settings:'wght' 700, 'wdth' 100, 'opsz' 14, 'GRAD' 0, 'slnt' 0, 'XTRA' 468, 'XOPQ' 96, 'YOPQ' 79, 'YTLC' 514, 'YTUC' 712, 'YTAS' 750, 'YTDE' -203, 'YTFI' 738;font-weight:700;}.cls-5{font-family:RobotoFlex-Regular, 'Roboto Flex';font-variation-settings:'wght' 400, 'wdth' 100, 'opsz' 14, 'GRAD' 0, 'slnt' 0, 'XTRA' 468, 'XOPQ' 96, 'YOPQ' 79, 'YTLC' 514, 'YTUC' 712, 'YTAS' 750, 'YTDE' -203, 'YTFI' 738;}</style></defs><g id="Layer_1-2"><rect class="cls-2" width="255.78" height="152.86"/><path class="cls-1" d="m55.97,35.1c2.59.8,4.68,2.27,6.29,4.4,1.29,1.72,2.16,3.59,2.63,5.6s.7,3.92.7,5.74c0,4.61-.98,8.51-2.95,11.71-2.68,4.31-6.8,6.47-12.38,6.47h-15.91v-34.66h15.91c2.29.03,4.19.28,5.71.75Zm-14.14,5.27v22.62h7.12c3.64,0,6.18-1.69,7.62-5.06.78-1.85,1.18-4.05,1.18-6.61,0-3.53-.59-6.23-1.77-8.12-1.18-1.89-3.52-2.83-7.03-2.83h-7.12Z"/><path class="cls-1" d="m111.34,58.02c.23,1.5.67,2.62,1.33,3.37,1.21,1.35,3.29,2.03,6.23,2.03,1.76,0,3.19-.18,4.29-.53,2.08-.68,3.12-1.95,3.12-3.81,0-1.08-.51-1.92-1.53-2.52-1.02-.58-2.64-1.09-4.86-1.54l-3.79-.78c-3.72-.77-6.28-1.61-7.67-2.52-2.36-1.52-3.53-3.89-3.53-7.11,0-2.94,1.15-5.39,3.46-7.33,2.3-1.95,5.7-2.92,10.16-2.92,3.73,0,6.91.92,9.55,2.75,2.63,1.84,4.01,4.5,4.14,7.99h-7.02c-.13-1.98-1.07-3.38-2.83-4.21-1.17-.55-2.62-.82-4.35-.82-1.93,0-3.48.36-4.62,1.07-1.15.71-1.73,1.71-1.73,2.99,0,1.17.57,2.05,1.7,2.63.73.39,2.28.84,4.65,1.36l6.14,1.36c2.69.59,4.7,1.39,6.05,2.38,2.08,1.55,3.13,3.78,3.13,6.71s-1.23,5.5-3.71,7.48c-2.47,1.99-5.96,2.98-10.47,2.98s-8.23-.98-10.87-2.93c-2.64-1.95-3.95-4.64-3.95-8.06h6.98Z"/><path class="cls-1" d="m146.99,69h-7.65v-34.66h7.65v34.66Z"/><path class="cls-1" d="m178.22,45.47c-.56-2.25-1.91-3.82-4.07-4.71-1.2-.49-2.55-.74-4.02-.74-2.83,0-5.14,1-6.96,3-1.81,2-2.72,5-2.72,9.02s.98,6.9,2.95,8.58c1.97,1.68,4.2,2.52,6.7,2.52s4.47-.66,6.04-1.98c1.57-1.32,2.54-3.06,2.9-5.21h-8.11v-5.49h14.6v18.51h-5.59v-4.96c-1.41,1.56-2.68,2.65-3.8,3.29-1.93,1.11-4.31,1.67-7.13,1.67-4.64,0-8.45-1.51-11.41-4.53-3.09-3.03-4.64-7.19-4.64-12.45s1.56-9.59,4.69-12.81c3.12-3.21,7.25-4.82,12.39-4.82,4.45,0,8.03,1.06,10.73,3.18,2.7,2.12,4.25,4.77,4.65,7.94h-7.2Z"/><path class="cls-1" d="m191.52,34.35h8.08l14.65,24.17v-24.17h7.18v34.66h-7.71l-15.02-24.59v24.59h-7.18v-34.66Z"/><rect class="cls-1" x="71.59" y="48.67" width="26.81" height="5.98"/><rect class="cls-1" x="71.59" y="34.35" width="26.81" height="5.98"/><rect class="cls-1" x="71.59" y="62.99" width="26.81" height="5.98"/><path class="cls-1" d="m34.35,118.51v-34.7h7.66v13.23h14.34v-13.23h7.67v34.7h-7.67v-15.49h-14.34v15.49h-7.66Z"/><path class="cls-1" d="m101.74,114.68c-2.64,2.55-6.45,3.83-11.44,3.83s-8.8-1.28-11.44-3.83c-3.54-3.13-5.3-7.64-5.3-13.52s1.77-10.51,5.3-13.52c2.64-2.55,6.45-3.83,11.44-3.83s8.8,1.28,11.44,3.83c3.52,3.01,5.28,7.52,5.28,13.52s-1.76,10.39-5.28,13.52Zm-4.56-4.98c1.7-2,2.55-4.85,2.55-8.54s-.85-6.52-2.55-8.53c-1.69-2.01-3.99-3.01-6.88-3.01s-5.19,1-6.91,3c-1.72,2-2.58,4.85-2.58,8.54s.86,6.54,2.58,8.54c1.72,2,4.03,3,6.91,3s5.18-1,6.88-3Z"/><path class="cls-1" d="m116.56,83.86h7.83v20.38c0,2.38.3,4.12.9,5.21.93,1.94,2.96,2.91,6.09,2.91s5.13-.97,6.06-2.91c.6-1.1.9-2.83.9-5.21v-20.38h7.84v20.4c0,3.68-.61,6.55-1.82,8.61-2.27,3.76-6.59,5.64-12.97,5.64s-10.71-1.88-13-5.64c-1.22-2.05-1.82-4.92-1.82-8.61v-20.4Z"/><path class="cls-1" d="m162.7,107.53c.23,1.5.67,2.62,1.33,3.37,1.21,1.35,3.29,2.03,6.23,2.03,1.76,0,3.19-.18,4.29-.53,2.08-.68,3.12-1.95,3.12-3.81,0-1.08-.51-1.92-1.53-2.52-1.02-.58-2.64-1.09-4.86-1.54l-3.79-.78c-3.72-.77-6.28-1.61-7.67-2.52-2.36-1.52-3.53-3.89-3.53-7.11,0-2.94,1.15-5.39,3.46-7.33,2.3-1.95,5.7-2.92,10.16-2.92,3.73,0,6.91.92,9.55,2.75,2.63,1.84,4.01,4.5,4.14,7.99h-7.02c-.13-1.98-1.07-3.38-2.83-4.21-1.17-.55-2.62-.82-4.35-.82-1.93,0-3.48.36-4.62,1.07-1.15.71-1.73,1.71-1.73,2.99,0,1.17.57,2.05,1.7,2.63.73.39,2.28.84,4.65,1.36l6.14,1.36c2.69.59,4.7,1.39,6.05,2.38,2.08,1.55,3.13,3.78,3.13,6.71s-1.23,5.5-3.71,7.48c-2.47,1.99-5.96,2.98-10.47,2.98s-8.23-.98-10.87-2.93c-2.64-1.95-3.95-4.64-3.95-8.06h6.98Z"/><rect class="cls-1" x="194.26" y="98.18" width="27.16" height="5.98"/><rect class="cls-1" x="194.26" y="83.86" width="27.16" height="5.98"/><rect class="cls-1" x="194.26" y="112.5" width="27.16" height="5.98"/><text class="cls-3" transform="translate(295.6 61.69)"><tspan class="cls-5"><tspan x="0" y="0">By</tspan></tspan><tspan class="cls-4"><tspan x="0" y="71.85">WNS VURAM</tspan></tspan></text></g></svg>